HIERARCHY
ROOT hip
{
  OFFSET 0 0 0
  CHANNELS 6 Xposition Yposition Zposition Zrotation Yrotation Xrotation
  JOINT abdomen
  {
    OFFSET 0 20.6881 -0.73152
    CHANNELS 3 Zrotation Xrotation Yrotation
    JOINT chest
    {
      OFFSET 0 11.7043 -0.48768
      CHANNELS 3 Zrotation Xrotation Yrotation
      JOINT neck
      {
        OFFSET 0 22.1894 -2.19456
        CHANNELS 3 Zrotation Xrotation Yrotation
        JOINT head
        {
          OFFSET -0.24384 7.07133 1.2192
          CHANNELS 3 Zrotation Xrotation Yrotation
          JOINT leftEye
          {
            OFFSET 4.14528 8.04674 8.04672
            CHANNELS 3 Zrotation Xrotation Yrotation
            End Site
            {
              OFFSET 1 0 0
            }
          }
          JOINT rightEye
          {
            OFFSET -3.6576 8.04674 8.04672
            CHANNELS 3 Zrotation Xrotation Yrotation
            End Site
            {
              OFFSET 1 0 0
            }
          }
        }
      }
      JOINT rCollar
      {
        OFFSET -2.68224 19.2634 -4.8768
        CHANNELS 3 Zrotation Xrotation Yrotation
        JOINT rShldr
        {
          OFFSET -8.77824 -1.95073 1.46304
          CHANNELS 3 Zrotation Xrotation Yrotation
          JOINT rForeArm
          {
            OFFSET -28.1742 -1.7115 0.48768
            CHANNELS 3 Zrotation Xrotation Yrotation
            JOINT rHand
            {
              OFFSET -22.5879 0.773209 7.07136
              CHANNELS 3 Zrotation Xrotation Yrotation
              JOINT rThumb1
              {
                OFFSET -1.2192 -0.487915 3.41376
                CHANNELS 3 Zrotation Xrotation Yrotation
                JOINT rThumb2
                {
                  OFFSET -3.37035 -0.52449 3.41376
                  CHANNELS 3 Zrotation Xrotation Yrotation
                  End Site
                  {
                    OFFSET -1.78271 -1.18214 1.43049
                  }
                }
              }
              JOINT rIndex1
              {
                OFFSET -7.75947 0.938293 5.60832
                CHANNELS 3 Zrotation Xrotation Yrotation
                JOINT rIndex2
                {
                  OFFSET -2.54057 -0.884171 1.56538
                  CHANNELS 3 Zrotation Xrotation Yrotation
                  End Site
                  {
                    OFFSET -1.62519 -0.234802 1.16502
                  }
                }
              }
              JOINT rMid1
              {
                OFFSET -8.24714 1.18213 3.41376
                CHANNELS 3 Zrotation Xrotation Yrotation
                JOINT rMid2
                {
                  OFFSET -3.10165 -0.590103 1.0647
                  CHANNELS 3 Zrotation Xrotation Yrotation
                  End Site
                  {
                    OFFSET -2.48547 -0.328903 0.83742
                  }
                }
              }
              JOINT rRing1
              {
                OFFSET -8.82822 0.546677 1.51678
                CHANNELS 3 Zrotation Xrotation Yrotation
                JOINT rRing2
                {
                  OFFSET -2.60934 -0.819778 -0.0198488
                  CHANNELS 3 Zrotation Xrotation Yrotation
                  End Site
                  {
                    OFFSET -2.33842 -0.294052 0.168128
                  }
                }
              }
              JOINT rPinky1
              {
                OFFSET -8.27202 -0.0477905 -0.4584
                CHANNELS 3 Zrotation Xrotation Yrotation
                JOINT rPinky2
                {
                  OFFSET -1.82734 -0.647385 -0.700984
                  CHANNELS 3 Zrotation Xrotation Yrotation
                  End Site
                  {
                    OFFSET -1.69225 -0.51767 -0.607171
                  }
                }
              }
            }
          }
        }
      }
      JOINT lCollar
      {
        OFFSET 2.68224 19.2634 -4.8768
        CHANNELS 3 Zrotation Xrotation Yrotation
        JOINT lShldr
        {
          OFFSET 8.77824 -1.95073 1.46304
          CHANNELS 3 Zrotation Xrotation Yrotation
          JOINT lForeArm
          {
            OFFSET 28.1742 -1.7115 0.48768
            CHANNELS 3 Zrotation Xrotation Yrotation
            JOINT lHand
            {
              OFFSET 22.5879 0.773209 7.07136
              CHANNELS 3 Zrotation Xrotation Yrotation
              JOINT lThumb1
              {
                OFFSET 1.2192 -0.487915 3.41376
                CHANNELS 3 Zrotation Xrotation Yrotation
                JOINT lThumb2
                {
                  OFFSET 3.37035 -0.52449 3.41376
                  CHANNELS 3 Zrotation Xrotation Yrotation
                  End Site
                  {
                    OFFSET 1.78271 -1.18214 1.43049
                  }
                }
              }
              JOINT lIndex1
              {
                OFFSET 7.75947 0.938293 5.60832
                CHANNELS 3 Zrotation Xrotation Yrotation
                JOINT lIndex2
                {
                  OFFSET 2.54057 -0.884171 1.56538
                  CHANNELS 3 Zrotation Xrotation Yrotation
                  End Site
                  {
                    OFFSET 1.62519 -0.234802 1.16502
                  }
                }
              }
              JOINT lMid1
              {
                OFFSET 8.24714 1.18213 3.41376
                CHANNELS 3 Zrotation Xrotation Yrotation
                JOINT lMid2
                {
                  OFFSET 3.10165 -0.590103 1.0647
                  CHANNELS 3 Zrotation Xrotation Yrotation
                  End Site
                  {
                    OFFSET 2.48547 -0.328903 0.83742
                  }
                }
              }
              JOINT lRing1
              {
                OFFSET 8.82822 0.546677 1.51678
                CHANNELS 3 Zrotation Xrotation Yrotation
                JOINT lRing2
                {
                  OFFSET 2.60934 -0.819778 -0.0198488
                  CHANNELS 3 Zrotation Xrotation Yrotation
                  End Site
                  {
                    OFFSET 2.33842 -0.294052 0.168128
                  }
                }
              }
              JOINT lPinky1
              {
                OFFSET 8.27202 -0.0477905 -0.4584
                CHANNELS 3 Zrotation Xrotation Yrotation
                JOINT lPinky2
                {
                  OFFSET 1.82734 -0.647385 -0.700984
                  CHANNELS 3 Zrotation Xrotation Yrotation
                  End Site
                  {
                    OFFSET 1.69225 -0.51767 -0.607171
                  }
                }
              }
            }
          }
        }
      }
    }
  }
  JOINT rButtock
  {
    OFFSET -8.77824 4.35084 1.2192
    CHANNELS 3 Zrotation Xrotation Yrotation
    JOINT rThigh
    {
      OFFSET 0 -1.70687 -2.19456
      CHANNELS 3 Zrotation Xrotation Yrotation
      JOINT rShin
      {
        OFFSET 0 -36.8199 0.73152
        CHANNELS 3 Zrotation Xrotation Yrotation
        JOINT rFoot
        {
          OFFSET 0.73152 -45.1104 -5.12064
          CHANNELS 3 Zrotation Xrotation Yrotation
          End Site
          {
            OFFSET -1.1221 -3.69964 12.103
          }
        }
      }
    }
  }
  JOINT lButtock
  {
    OFFSET 8.77824 4.35084 1.2192
    CHANNELS 3 Zrotation Xrotation Yrotation
    JOINT lThigh
    {
      OFFSET 0 -1.70687 -2.19456
      CHANNELS 3 Zrotation Xrotation Yrotation
      JOINT lShin
      {
        OFFSET 0 -36.8199 0.73152
        CHANNELS 3 Zrotation Xrotation Yrotation
        JOINT lFoot
        {
          OFFSET -0.73152 -45.1104 -5.12064
          CHANNELS 3 Zrotation Xrotation Yrotation
          End Site
          {
            OFFSET 1.1221 -3.69964 12.103
          }
        }
      }
    }
  }
}
MOTION
Frames:	9
Frame Time:	0.00833333
-87.8696 70.242 107.513 380.433 -71.4165 699.825 -12.6071 12.3403 8.8649 1.603 -8.50616 2.166 -9.53298 16.9131 -12.9555 11.2667 -25.234 -23.1473 -0.0 0.0 0.0 -0.0 0.0 0.0 -1.54395e-13 -4.99107e-13 -6.88187e-13 28.4682 -16.1934 64.5785 -9.25992 -3.70356 16.4207 -0.660754 22.4518 3.32926 -2.29896e-09 -1.36564e-09 4.62103e-09 -3.89476e-09 -2.38196e-09 8.0217e-09 -2.29896e-09 -1.36564e-09 4.62102e-09 7.73091 5.47488 0.417314 -2.29896e-09 -1.36564e-09 4.62103e-09 2.90554 0.965183 0.102902 -2.29896e-09 -1.36564e-09 4.62103e-09 10.2786 0.731801 0.0259123 -2.29897e-09 -1.36564e-09 4.62104e-09 2.22167 -0.733487 -0.20892 -1.54458e-13 -4.99115e-13 -6.88444e-13 -112.122 48.6722 49.4319 27.9625 -40.6073 -85.0169 5.90002 -54.5963 11.4044 1.15943e-09 1.8637e-10 -1.38639e-10 2.00904e-09 3.36623e-10 -2.01602e-10 1.15943e-09 1.86372e-10 -1.38629e-10 -7.73091 5.47488 -0.417314 1.15943e-09 1.86374e-10 -1.38637e-10 -2.90554 0.965183 -0.102902 1.15942e-09 1.86376e-10 -1.38636e-10 -10.2786 0.731801 -0.0259123 1.15943e-09 1.86377e-10 -1.38642e-10 -2.22167 -0.733487 0.20892 -2.03217e-16 0.0 -3.88251e-19 -36.2279 -53.7755 -26.3794 -1.39869 64.1947 1.81685 0.719566 -3.99814 10.5571 2.03217e-16 0.0 3.88251e-19 6.63323 7.13374 -9.95475 -0.116948 30.0579 -1.80527 11.007 -15.1953 29.8567
-87.9462 70.2268 107.514 380.015 -71.4713 700.229 -12.5136 12.272 8.78663 1.63497 -8.52102 2.15323 -9.59626 16.9312 -12.9931 11.4411 -25.1951 -23.1901 -0.0 0.0 0.0 -0.0 0.0 0.0 -2.43316e-13 -7.78834e-13 -6.42422e-13 28.5834 -16.1452 64.6404 -9.24644 -3.69579 16.3957 -0.671709 22.6216 3.35737 -3.02232e-09 -1.19345e-09 3.65242e-09 -5.15968e-09 -2.07663e-09 6.36088e-09 -3.02231e-09 -1.19345e-09 3.65241e-09 7.73091 5.47488 0.417314 -3.02232e-09 -1.19345e-09 3.65242e-09 2.90554 0.965183 0.102902 -3.02231e-09 -1.19345e-09 3.65242e-09 10.2786 0.731801 0.0259123 -3.02232e-09 -1.19345e-09 3.65243e-09 2.22167 -0.733487 -0.20892 -2.43375e-13 -7.78843e-13 -6.42721e-13 -112.177 48.7053 49.4993 27.9645 -40.5972 -84.9985 5.93066 -54.6838 11.4419 4.38878e-10 1.30021e-11 -2.51133e-10 7.72893e-10 2.34789e-11 -4.23709e-10 4.38871e-10 1.30029e-11 -2.51124e-10 -7.73091 5.47488 -0.417314 4.38878e-10 1.30064e-11 -2.5113e-10 -2.90554 0.965183 -0.102902 4.3887e-10 1.30084e-11 -2.51128e-10 -10.2786 0.731801 -0.0259123 4.38877e-10 1.30101e-11 -2.51133e-10 -2.22167 -0.733487 0.20892 -2.03217e-16 0.0 -3.88251e-19 -36.2462 -53.7671 -26.4911 -1.40001 64.2103 1.81681 0.738709 -4.13156 10.5125 2.03217e-16 0.0 3.88251e-19 6.65795 7.07062 -10.0808 -0.115178 30.1274 -1.80577 11.075 -15.2114 29.9784
-88.015 70.2135 107.537 379.855 -71.511 700.371 -12.472 12.2402 8.64757 1.72852 -8.5973 2.12706 -9.45836 16.8864 -13.0613 11.253 -25.1533 -23.3611 -0.0 0.0 0.0 -0.0 0.0 0.0 -1.87653e-13 -5.96387e-13 -4.23303e-13 28.5986 -16.0804 64.6724 -9.23455 -3.68896 16.3737 -0.668416 22.5694 3.34876 -2.1244e-09 -7.46974e-10 2.06532e-09 -3.63434e-09 -1.29816e-09 3.60369e-09 -2.12439e-09 -7.4698e-10 2.06531e-09 7.73091 5.47488 0.417314 -2.1244e-09 -7.46978e-10 2.06531e-09 2.90554 0.965183 0.102902 -2.12439e-09 -7.46979e-10 2.06532e-09 10.2786 0.731801 0.0259123 -2.1244e-09 -7.46975e-10 2.06532e-09 2.22167 -0.733487 -0.20892 -1.87704e-13 -5.96393e-13 -4.23609e-13 -112.214 48.7102 49.5477 27.9665 -40.5875 -84.9809 5.86975 -54.5101 11.3674 4.37897e-11 -5.6394e-11 -2.29636e-10 8.92053e-11 -1.01092e-10 -3.99213e-10 4.37828e-11 -5.63929e-11 -2.29627e-10 -7.73091 5.47488 -0.417314 4.37901e-11 -5.63895e-11 -2.29632e-10 -2.90554 0.965183 -0.102902 4.37832e-11 -5.63881e-11 -2.29631e-10 -10.2786 0.731801 -0.0259123 4.37887e-11 -5.63858e-11 -2.29636e-10 -2.22167 -0.733487 0.20892 -2.03217e-16 0.0 -3.88251e-19 -36.3475 -53.7718 -26.713 -1.40314 64.25 1.81618 0.751365 -4.21763 10.4775 2.03217e-16 0.0 3.88251e-19 6.73544 6.90126 -10.1806 -0.112181 30.2569 -1.80716 11.118 -15.1996 30.0641
-88.0088 70.191 107.525 379.645 -71.4081 700.671 -12.4662 12.2312 8.45873 1.86769 -8.71776 2.08992 -9.18595 16.7968 -13.1511 10.8234 -25.1058 -23.6199 -0.0 0.0 0.0 -0.0 0.0 0.0 -4.57146e-14 -1.40924e-13 -7.86411e-14 28.5562 -16.0029 64.6898 -9.22312 -3.68242 16.3525 -0.656393 22.3796 3.31744 -1.96227e-10 -8.80783e-11 -8.82958e-11 -3.38737e-10 -1.52071e-10 -1.49907e-10 -1.96221e-10 -8.80824e-11 -8.83054e-11 7.73091 5.47488 0.417314 -1.96227e-10 -8.8081e-11 -8.82997e-11 2.90554 0.965183 0.102902 -1.96226e-10 -8.80813e-11 -8.82986e-11 10.2786 0.731801 0.0259123 -1.96231e-10 -8.80787e-11 -8.82949e-11 2.22167 -0.733487 -0.20892 -4.57542e-14 -1.40928e-13 -7.89362e-14 -112.248 48.6971 49.5894 27.9683 -40.5784 -84.9644 5.75317 -54.1707 11.224 -2.19442e-10 -7.70052e-11 -1.30853e-10 -3.72327e-10 -1.37036e-10 -2.34265e-10 -2.19448e-10 -7.70032e-11 -1.30845e-10 -7.73091 5.47488 -0.417314 -2.19441e-10 -7.70007e-11 -1.30849e-10 -2.90554 0.965183 -0.102902 -2.19445e-10 -7.70002e-11 -1.3085e-10 -10.2786 0.731801 -0.0259123 -2.19441e-10 -7.69973e-11 -1.30855e-10 -2.22167 -0.733487 0.20892 -2.03217e-16 0.0 -3.88251e-19 -36.5124 -53.7867 -27.0221 -1.40757 64.3062 1.81489 0.758763 -4.27277 10.4411 2.03217e-16 0.0 3.88251e-19 6.84795 6.64388 -10.2665 -0.108021 30.4436 -1.80962 11.1499 -15.1751 30.1277
-87.8529 70.1372 107.351 378.867 -71.0269 701.836 -12.4568 12.2238 8.26418 2.01378 -8.8395 2.052 -8.89512 16.7106 -13.2482 10.363 -25.083 -23.8982 -0.0 0.0 0.0 -0.0 0.0 0.0 9.63271e-14 3.10556e-13 2.64827e-13 28.5248 -15.9407 64.7105 -9.20836 -3.67398 16.3252 -0.643933 22.1794 3.28453 1.72702e-09 5.44694e-10 -2.14208e-09 2.9498e-09 9.48282e-10 -3.7308e-09 1.72702e-09 5.44693e-10 -2.14209e-09 7.73091 5.47488 0.417314 1.72702e-09 5.44694e-10 -2.14208e-09 2.90554 0.965183 0.102902 1.72702e-09 5.44693e-10 -2.14208e-09 10.2786 0.731801 0.0259123 1.72701e-09 5.44695e-10 -2.14208e-09 2.22167 -0.733487 -0.20892 9.62914e-14 3.10556e-13 2.64553e-13 -112.292 48.6881 49.6351 27.9697 -40.5713 -84.9515 5.63741 -53.8248 11.0808 -4.06664e-10 -7.75459e-11 -1.13457e-11 -7.03758e-10 -1.37339e-10 -3.05741e-11 -4.06669e-10 -7.75429e-11 -1.13386e-11 -7.73091 5.47488 -0.417314 -4.06662e-10 -7.75418e-11 -1.13421e-11 -2.90554 0.965183 -0.102902 -4.06663e-10 -7.7542e-11 -1.1345e-11 -10.2786 0.731801 -0.0259123 -4.06661e-10 -7.75389e-11 -1.13501e-11 -2.22167 -0.733487 0.20892 -2.03217e-16 0.0 -3.88251e-19 -36.6692 -53.8065 -27.3295 -1.41211 64.3622 1.8131 0.763983 -4.31031 10.4081 2.03217e-16 0.0 3.88251e-19 6.9679 6.36108 -10.3457 -0.103169 30.6666 -1.81284 11.1882 -15.1488 30.1997
-87.9289 70.1413 107.38 378.534 -71.0473 702.032 -12.4045 12.1972 8.10802 2.12829 -8.91966 2.02349 -8.70158 16.6758 -13.3385 10.0823 -25.1156 -24.1283 -0.0 0.0 0.0 -0.0 0.0 0.0 1.52298e-13 4.81058e-13 4.80363e-13 28.5732 -15.9216 64.7523 -9.18647 -3.66148 16.2845 -0.638815 22.0962 3.2709 2.61017e-09 9.12797e-10 -3.42969e-09 4.45394e-09 1.58956e-09 -5.96987e-09 2.61017e-09 9.12798e-10 -3.4297e-09 7.73091 5.47488 0.417314 2.61016e-09 9.12798e-10 -3.42969e-09 2.90554 0.965183 0.102902 2.61017e-09 9.12797e-10 -3.42969e-09 10.2786 0.731801 0.0259123 2.61016e-09 9.12798e-10 -3.42969e-09 2.22167 -0.733487 -0.20892 1.5225e-13 4.8106e-13 4.80115e-13 -112.36 48.7051 49.6956 27.9704 -40.5677 -84.945 5.57416 -53.6317 11.0022 -5.73723e-10 -8.67306e-11 7.23226e-11 -9.97142e-10 -1.54985e-10 1.10148e-10 -5.73728e-10 -8.67274e-11 7.2329e-11 -7.73091 5.47488 -0.417314 -5.73721e-10 -8.67272e-11 7.23258e-11 -2.90554 0.965183 -0.102902 -5.73721e-10 -8.67279e-11 7.23218e-11 -10.2786 0.731801 -0.0259123 -5.73718e-10 -8.67246e-11 7.23163e-11 -2.22167 -0.733487 0.20892 -2.03217e-16 0.0 -3.88251e-19 -36.7457 -53.8273 -27.5458 -1.41558 64.4012 1.81097 0.770081 -4.34355 10.3835 2.03217e-16 0.0 3.88251e-19 7.06797 6.11537 -10.4249 -0.0981028 30.905 -1.81653 11.2503 -15.132 30.3106
-88.1559 70.1661 107.554 378.489 -71.4537 701.765 -12.2922 12.1434 8.00567 2.2016 -8.93992 2.00826 -8.64195 16.7182 -13.4199 10.0468 -25.235 -24.2938 -0.0 0.0 0.0 -0.0 0.0 0.0 6.37356e-14 1.762e-13 5.2112e-13 28.7459 -15.9679 64.8295 -9.15118 -3.64135 16.219 -0.646493 22.2216 3.29144 1.84054e-09 8.97338e-10 -3.70159e-09 3.11922e-09 1.56642e-09 -6.42515e-09 1.84054e-09 8.9734e-10 -3.7016e-09 7.73091 5.47488 0.417314 1.84054e-09 8.97339e-10 -3.70159e-09 2.90554 0.965183 0.102902 1.84054e-09 8.97339e-10 -3.70159e-09 10.2786 0.731801 0.0259123 1.84054e-09 8.97339e-10 -3.70159e-09 2.22167 -0.733487 -0.20892 6.36414e-14 1.76203e-13 5.20907e-13 -112.471 48.7631 49.7867 27.9694 -40.5731 -84.9548 5.58761 -53.6726 11.0188 -7.68042e-10 -1.19161e-10 1.06151e-10 -1.33267e-09 -2.17978e-10 1.61136e-10 -7.68047e-10 -1.19159e-10 1.06158e-10 -7.73091 5.47488 -0.417314 -7.68041e-10 -1.19159e-10 1.06154e-10 -2.90554 0.965183 -0.102902 -7.68042e-10 -1.1916e-10 1.0615e-10 -10.2786 0.731801 -0.0259123 -7.68036e-10 -1.19156e-10 1.06144e-10 -2.22167 -0.733487 0.20892 -2.03217e-16 0.0 -3.88251e-19 -36.7028 -53.8425 -27.6307 -1.41731 64.416 1.80832 0.776393 -4.37693 10.3617 2.03217e-16 0.0 3.88251e-19 7.14416 5.94069 -10.5116 -0.0931181 31.1383 -1.82035 11.3402 -15.1211 30.4772
-88.1905 70.1504 107.557 377.899 -71.4891 702.334 -12.1431 12.0744 7.9324 2.2541 -8.92543 2.0005 -8.65224 16.8077 -13.4995 10.1404 -25.417 -24.4309 -0.0 0.0 0.0 -0.0 0.0 0.0 -1.11574e-13 -4.16114e-13 4.5904e-13 28.9978 -16.0593 64.9298 -9.10622 -3.61573 16.1356 -0.661903 22.4683 3.33203 8.24464e-11 6.43968e-10 -3.33711e-09 8.70557e-11 1.13101e-09 -5.76356e-09 8.24494e-11 6.43971e-10 -3.33712e-09 7.73091 5.47488 0.417314 8.24455e-11 6.43969e-10 -3.3371e-09 2.90554 0.965183 0.102902 8.24494e-11 6.43969e-10 -3.33711e-09 10.2786 0.731801 0.0259123 8.24445e-11 6.43969e-10 -3.3371e-09 2.22167 -0.733487 -0.20892 -1.11737e-13 -4.16112e-13 4.58876e-13 -112.613 48.8474 49.8988 27.967 -40.585 -84.9765 5.64599 -53.8496 11.0913 -9.48993e-10 -1.57208e-10 1.19946e-10 -1.64269e-09 -2.93433e-10 1.76517e-10 -9.48998e-10 -1.57207e-10 1.19953e-10 -7.73091 5.47488 -0.417314 -9.48992e-10 -1.57208e-10 1.19948e-10 -2.90554 0.965183 -0.102902 -9.48996e-10 -1.57208e-10 1.19946e-10 -10.2786 0.731801 -0.0259123 -9.48987e-10 -1.57205e-10 1.19938e-10 -2.22167 -0.733487 0.20892 -2.03217e-16 0.0 -3.88251e-19 -36.5853 -53.8566 -27.6372 -1.41808 64.4165 1.80514 0.781813 -4.40304 10.3422 2.03217e-16 0.0 3.88251e-19 7.21017 5.79791 -10.6 -0.0878885 31.3828 -1.82457 11.4488 -15.1123 30.6801
-88.2175 70.1159 107.572 377.63 -71.5483 702.606 -11.9783 11.9995 7.87216 2.29247 -8.89854 1.99587 -8.69713 16.9089 -13.5768 10.3009 -25.6096 -24.5504 -0.0 0.0 0.0 -0.0 0.0 0.0 -2.85428e-13 -9.99454e-13 3.45577e-13 29.2633 -16.16 65.0302 -9.0628 -3.59101 16.0552 -0.676437 22.6959 3.36965 -1.78383e-09 3.10956e-10 -2.61321e-09 -3.12607e-09 5.56248e-10 -4.47938e-09 -1.78382e-09 3.1096e-10 -2.61322e-09 7.73091 5.47488 0.417314 -1.78383e-09 3.10957e-10 -2.6132e-09 2.90554 0.965183 0.102902 -1.78382e-09 3.10958e-10 -2.61321e-09 10.2786 0.731801 0.0259123 -1.78383e-09 3.10957e-10 -2.61321e-09 2.22167 -0.733487 -0.20892 -2.85654e-13 -9.99453e-13 3.45455e-13 -112.751 48.9349 50.0041 27.9654 -40.5928 -84.9908 5.71436 -54.054 11.1758 -1.04035e-09 -1.81239e-10 1.22855e-10 -1.79752e-09 -3.43009e-10 1.75918e-10 -1.04035e-09 -1.8124e-10 1.22862e-10 -7.73091 5.47488 -0.417314 -1.04035e-09 -1.81241e-10 1.22856e-10 -2.90554 0.965183 -0.102902 -1.04035e-09 -1.81241e-10 1.22855e-10 -10.2786 0.731801 -0.0259123 -1.04034e-09 -1.81238e-10 1.22847e-10 -2.22167 -0.733487 0.20892 -2.03217e-16 0.0 -3.88251e-19 -36.4468 -53.8827 -27.6161 -1.41876 64.4113 1.80187 0.788738 -4.41748 10.3383 2.03217e-16 0.0 3.88251e-19 7.26525 5.63992 -10.678 -0.0819477 31.6722 -1.8298 11.5743 -15.1156 30.8963
